<mxfile host="app.diagrams.net" modified="2024-06-09T14:50:51.280Z" agent="Mozilla/5.0 (Windows NT 10.0; Win64; x64) AppleWebKit/537.36 (KHTML, like Gecko) Chrome/125.0.0.0 Safari/537.36" etag="EfpcNtf9sSnSJG81FYbm" version="24.5.2" type="device">
  <diagram name="Page-1" id="c4acf3e9-155e-7222-9cf6-157b1a14988f">
    <mxGraphModel dx="1194" dy="750" grid="1" gridSize="10" guides="1" tooltips="1" connect="1" arrows="1" fold="1" page="1" pageScale="1" pageWidth="850" pageHeight="1100" background="none" math="0" shadow="0">
      <root>
        <mxCell id="0" />
        <mxCell id="1" parent="0" />
        <mxCell id="jbp7wJCzO9JEO05FriEm-1" value="IPHONE" style="swimlane;fontStyle=0;childLayout=stackLayout;horizontal=1;startSize=26;fillColor=none;horizontalStack=0;resizeParent=1;resizeParentMax=0;resizeLast=0;collapsible=1;marginBottom=0;whiteSpace=wrap;html=1;" vertex="1" parent="1">
          <mxGeometry x="340" y="40" width="140" height="52" as="geometry" />
        </mxCell>
        <mxCell id="jbp7wJCzO9JEO05FriEm-5" value="&lt;span style=&quot;color: rgb(19, 19, 0); font-family: &amp;quot;trebuchet ms&amp;quot;, verdana, arial, sans-serif; font-size: 16px; font-weight: 700; text-align: start; text-wrap: nowrap; background-color: rgb(255, 255, 255);&quot;&gt;ReprodutorMusical&lt;/span&gt;" style="swimlane;fontStyle=0;childLayout=stackLayout;horizontal=1;startSize=26;fillColor=none;horizontalStack=0;resizeParent=1;resizeParentMax=0;resizeLast=0;collapsible=1;marginBottom=0;whiteSpace=wrap;html=1;" vertex="1" parent="1">
          <mxGeometry x="60" y="160" width="200" height="102" as="geometry" />
        </mxCell>
        <mxCell id="jbp7wJCzO9JEO05FriEm-6" value="+ tocar ()" style="text;strokeColor=none;fillColor=none;align=left;verticalAlign=top;spacingLeft=4;spacingRight=4;overflow=hidden;rotatable=0;points=[[0,0.5],[1,0.5]];portConstraint=eastwest;whiteSpace=wrap;html=1;" vertex="1" parent="jbp7wJCzO9JEO05FriEm-5">
          <mxGeometry y="26" width="200" height="26" as="geometry" />
        </mxCell>
        <mxCell id="jbp7wJCzO9JEO05FriEm-7" value="+ pausar ()" style="text;strokeColor=none;fillColor=none;align=left;verticalAlign=top;spacingLeft=4;spacingRight=4;overflow=hidden;rotatable=0;points=[[0,0.5],[1,0.5]];portConstraint=eastwest;whiteSpace=wrap;html=1;" vertex="1" parent="jbp7wJCzO9JEO05FriEm-5">
          <mxGeometry y="52" width="200" height="26" as="geometry" />
        </mxCell>
        <mxCell id="jbp7wJCzO9JEO05FriEm-8" value="+ selecionarMusica (string Musica)" style="text;strokeColor=none;fillColor=none;align=left;verticalAlign=top;spacingLeft=4;spacingRight=4;overflow=hidden;rotatable=0;points=[[0,0.5],[1,0.5]];portConstraint=eastwest;whiteSpace=wrap;html=1;" vertex="1" parent="jbp7wJCzO9JEO05FriEm-5">
          <mxGeometry y="78" width="200" height="24" as="geometry" />
        </mxCell>
        <mxCell id="jbp7wJCzO9JEO05FriEm-9" value="&lt;span style=&quot;color: rgb(19, 19, 0); font-family: &amp;quot;trebuchet ms&amp;quot;, verdana, arial, sans-serif; font-size: 16px; font-weight: 700; text-align: start; text-wrap: nowrap; background-color: rgb(255, 255, 255);&quot;&gt;AparelhoTelefonico&lt;/span&gt;" style="swimlane;fontStyle=0;childLayout=stackLayout;horizontal=1;startSize=26;fillColor=none;horizontalStack=0;resizeParent=1;resizeParentMax=0;resizeLast=0;collapsible=1;marginBottom=0;whiteSpace=wrap;html=1;" vertex="1" parent="1">
          <mxGeometry x="310" y="160" width="170" height="104" as="geometry" />
        </mxCell>
        <mxCell id="jbp7wJCzO9JEO05FriEm-11" value="+ ligar (string numero)" style="text;strokeColor=none;fillColor=none;align=left;verticalAlign=top;spacingLeft=4;spacingRight=4;overflow=hidden;rotatable=0;points=[[0,0.5],[1,0.5]];portConstraint=eastwest;whiteSpace=wrap;html=1;" vertex="1" parent="jbp7wJCzO9JEO05FriEm-9">
          <mxGeometry y="26" width="170" height="26" as="geometry" />
        </mxCell>
        <mxCell id="jbp7wJCzO9JEO05FriEm-12" value="+ atender ()" style="text;strokeColor=none;fillColor=none;align=left;verticalAlign=top;spacingLeft=4;spacingRight=4;overflow=hidden;rotatable=0;points=[[0,0.5],[1,0.5]];portConstraint=eastwest;whiteSpace=wrap;html=1;" vertex="1" parent="jbp7wJCzO9JEO05FriEm-9">
          <mxGeometry y="52" width="170" height="26" as="geometry" />
        </mxCell>
        <mxCell id="jbp7wJCzO9JEO05FriEm-17" value="+ iniciarCorreioVoz ()" style="text;strokeColor=none;fillColor=none;align=left;verticalAlign=top;spacingLeft=4;spacingRight=4;overflow=hidden;rotatable=0;points=[[0,0.5],[1,0.5]];portConstraint=eastwest;whiteSpace=wrap;html=1;" vertex="1" parent="jbp7wJCzO9JEO05FriEm-9">
          <mxGeometry y="78" width="170" height="26" as="geometry" />
        </mxCell>
        <mxCell id="jbp7wJCzO9JEO05FriEm-13" value="&lt;span style=&quot;color: rgb(19, 19, 0); font-family: &amp;quot;trebuchet ms&amp;quot;, verdana, arial, sans-serif; font-size: 16px; font-weight: 700; text-align: start; text-wrap: nowrap; background-color: rgb(255, 255, 255);&quot;&gt;NavegadorInternet&lt;/span&gt;" style="swimlane;fontStyle=0;childLayout=stackLayout;horizontal=1;startSize=26;fillColor=none;horizontalStack=0;resizeParent=1;resizeParentMax=0;resizeLast=0;collapsible=1;marginBottom=0;whiteSpace=wrap;html=1;" vertex="1" parent="1">
          <mxGeometry x="520" y="160" width="210" height="104" as="geometry" />
        </mxCell>
        <mxCell id="jbp7wJCzO9JEO05FriEm-14" value="+ exibirPagina (string url)" style="text;strokeColor=none;fillColor=none;align=left;verticalAlign=top;spacingLeft=4;spacingRight=4;overflow=hidden;rotatable=0;points=[[0,0.5],[1,0.5]];portConstraint=eastwest;whiteSpace=wrap;html=1;" vertex="1" parent="jbp7wJCzO9JEO05FriEm-13">
          <mxGeometry y="26" width="210" height="26" as="geometry" />
        </mxCell>
        <mxCell id="jbp7wJCzO9JEO05FriEm-15" value="+ adicionarNovaAba()" style="text;strokeColor=none;fillColor=none;align=left;verticalAlign=top;spacingLeft=4;spacingRight=4;overflow=hidden;rotatable=0;points=[[0,0.5],[1,0.5]];portConstraint=eastwest;whiteSpace=wrap;html=1;" vertex="1" parent="jbp7wJCzO9JEO05FriEm-13">
          <mxGeometry y="52" width="210" height="26" as="geometry" />
        </mxCell>
        <mxCell id="jbp7wJCzO9JEO05FriEm-16" value="+ atualizaPagina()" style="text;strokeColor=none;fillColor=none;align=left;verticalAlign=top;spacingLeft=4;spacingRight=4;overflow=hidden;rotatable=0;points=[[0,0.5],[1,0.5]];portConstraint=eastwest;whiteSpace=wrap;html=1;" vertex="1" parent="jbp7wJCzO9JEO05FriEm-13">
          <mxGeometry y="78" width="210" height="26" as="geometry" />
        </mxCell>
        <mxCell id="jbp7wJCzO9JEO05FriEm-22" value="" style="endArrow=classic;html=1;rounded=0;exitX=0.5;exitY=1;exitDx=0;exitDy=0;entryX=0.565;entryY=0.019;entryDx=0;entryDy=0;entryPerimeter=0;" edge="1" parent="1" source="jbp7wJCzO9JEO05FriEm-1" target="jbp7wJCzO9JEO05FriEm-9">
          <mxGeometry width="50" height="50" relative="1" as="geometry">
            <mxPoint x="400" y="140" as="sourcePoint" />
            <mxPoint x="450" y="90" as="targetPoint" />
          </mxGeometry>
        </mxCell>
        <mxCell id="jbp7wJCzO9JEO05FriEm-23" value="" style="endArrow=classic;html=1;rounded=0;exitX=0.5;exitY=1;exitDx=0;exitDy=0;entryX=0.565;entryY=0.019;entryDx=0;entryDy=0;entryPerimeter=0;" edge="1" parent="1">
          <mxGeometry width="50" height="50" relative="1" as="geometry">
            <mxPoint x="410" y="92" as="sourcePoint" />
            <mxPoint x="406" y="162" as="targetPoint" />
          </mxGeometry>
        </mxCell>
        <mxCell id="jbp7wJCzO9JEO05FriEm-24" value="" style="endArrow=classic;html=1;rounded=0;exitX=0;exitY=0.75;exitDx=0;exitDy=0;entryX=0.56;entryY=-0.02;entryDx=0;entryDy=0;entryPerimeter=0;" edge="1" parent="1" source="jbp7wJCzO9JEO05FriEm-1" target="jbp7wJCzO9JEO05FriEm-5">
          <mxGeometry width="50" height="50" relative="1" as="geometry">
            <mxPoint x="420" y="102" as="sourcePoint" />
            <mxPoint x="416" y="172" as="targetPoint" />
            <Array as="points">
              <mxPoint x="170" y="80" />
            </Array>
          </mxGeometry>
        </mxCell>
        <mxCell id="jbp7wJCzO9JEO05FriEm-25" value="" style="endArrow=classic;html=1;rounded=0;entryX=0.467;entryY=0.019;entryDx=0;entryDy=0;entryPerimeter=0;" edge="1" parent="1" target="jbp7wJCzO9JEO05FriEm-13">
          <mxGeometry width="50" height="50" relative="1" as="geometry">
            <mxPoint x="480" y="80" as="sourcePoint" />
            <mxPoint x="426" y="182" as="targetPoint" />
            <Array as="points">
              <mxPoint x="618" y="80" />
            </Array>
          </mxGeometry>
        </mxCell>
        <mxCell id="jbp7wJCzO9JEO05FriEm-26" value="&lt;span style=&quot;color: rgb(19, 19, 0); font-family: &amp;quot;trebuchet ms&amp;quot;, verdana, arial, sans-serif; font-size: 16px; font-weight: 700; text-align: start; text-wrap: nowrap; background-color: rgb(255, 255, 255);&quot;&gt;ReprodutorMusical&lt;/span&gt;" style="swimlane;fontStyle=0;childLayout=stackLayout;horizontal=1;startSize=26;fillColor=none;horizontalStack=0;resizeParent=1;resizeParentMax=0;resizeLast=0;collapsible=1;marginBottom=0;whiteSpace=wrap;html=1;" vertex="1" parent="1">
          <mxGeometry x="75" y="330" width="170" height="52" as="geometry" />
        </mxCell>
        <mxCell id="jbp7wJCzO9JEO05FriEm-30" value="&lt;span style=&quot;color: rgb(19, 19, 0); font-family: &amp;quot;trebuchet ms&amp;quot;, verdana, arial, sans-serif; font-size: 16px; font-weight: 700; text-align: start; text-wrap: nowrap; background-color: rgb(255, 255, 255);&quot;&gt;AparelhoTelefonico&lt;/span&gt;" style="swimlane;fontStyle=0;childLayout=stackLayout;horizontal=1;startSize=26;fillColor=none;horizontalStack=0;resizeParent=1;resizeParentMax=0;resizeLast=0;collapsible=1;marginBottom=0;whiteSpace=wrap;html=1;" vertex="1" parent="1">
          <mxGeometry x="315" y="330" width="170" height="52" as="geometry" />
        </mxCell>
        <mxCell id="jbp7wJCzO9JEO05FriEm-34" value="&lt;span style=&quot;color: rgb(19, 19, 0); font-family: &amp;quot;trebuchet ms&amp;quot;, verdana, arial, sans-serif; font-size: 16px; font-weight: 700; text-align: start; text-wrap: nowrap; background-color: rgb(255, 255, 255);&quot;&gt;NavegadorInternet&lt;/span&gt;" style="swimlane;fontStyle=0;childLayout=stackLayout;horizontal=1;startSize=26;fillColor=none;horizontalStack=0;resizeParent=1;resizeParentMax=0;resizeLast=0;collapsible=1;marginBottom=0;whiteSpace=wrap;html=1;" vertex="1" parent="1">
          <mxGeometry x="537.5" y="330" width="175" height="52" as="geometry" />
        </mxCell>
        <mxCell id="jbp7wJCzO9JEO05FriEm-38" value="" style="endArrow=classic;html=1;rounded=0;exitX=0.541;exitY=0.026;exitDx=0;exitDy=0;exitPerimeter=0;entryX=0.545;entryY=1.125;entryDx=0;entryDy=0;entryPerimeter=0;" edge="1" parent="1" source="jbp7wJCzO9JEO05FriEm-26" target="jbp7wJCzO9JEO05FriEm-8">
          <mxGeometry width="50" height="50" relative="1" as="geometry">
            <mxPoint x="400" y="440" as="sourcePoint" />
            <mxPoint x="450" y="390" as="targetPoint" />
          </mxGeometry>
        </mxCell>
        <mxCell id="jbp7wJCzO9JEO05FriEm-43" value="" style="endArrow=classic;html=1;rounded=0;" edge="1" parent="1">
          <mxGeometry width="50" height="50" relative="1" as="geometry">
            <mxPoint x="390" y="330" as="sourcePoint" />
            <mxPoint x="390" y="270" as="targetPoint" />
            <Array as="points">
              <mxPoint x="390" y="290" />
            </Array>
          </mxGeometry>
        </mxCell>
        <mxCell id="jbp7wJCzO9JEO05FriEm-44" value="" style="endArrow=classic;html=1;rounded=0;entryX=0.486;entryY=1.154;entryDx=0;entryDy=0;entryPerimeter=0;" edge="1" parent="1" target="jbp7wJCzO9JEO05FriEm-16">
          <mxGeometry width="50" height="50" relative="1" as="geometry">
            <mxPoint x="620" y="330" as="sourcePoint" />
            <mxPoint x="450" y="370" as="targetPoint" />
          </mxGeometry>
        </mxCell>
      </root>
    </mxGraphModel>
  </diagram>
</mxfile>
